<svg width="100" height="100" viewBox="0 0 100 100" fill="none" xmlns="http://www.w3.org/2000/svg">
<g clip-path="url(#clip0)">
<path d="M100 0H0V100H100V0Z" fill="white"/>
<path d="M100 0H0V100H100V0Z" fill="#FFF4CB"/>
<g filter="url(#filter0_d)">
<path d="M38.7451 69.9914C38.8197 69.7749 38.9401 69.577 39.098 69.4112C39.2559 69.2453 39.4477 69.1154 39.6603 69.0303C39.8729 68.9451 40.1013 68.9067 40.33 68.9177C40.5587 68.9286 40.7824 68.9887 40.9859 69.0938C43.7935 70.5525 46.9128 71.309 50.0767 71.2982C53.2405 71.2875 56.3547 70.51 59.1523 69.0323C59.3575 68.9241 59.5838 68.862 59.8155 68.8504C60.0472 68.8388 60.2786 68.8779 60.4936 68.965C60.7086 69.0521 60.902 69.1851 61.0603 69.3547C61.2186 69.5242 61.338 69.7263 61.4101 69.9468L64.1686 78.4454C64.2907 78.8187 64.3531 79.2091 64.3532 79.6019V82.4496C64.3527 82.9383 64.2558 83.4222 64.068 83.8735C63.8803 84.3247 63.6054 84.7345 63.2591 85.0794C62.9128 85.4243 62.5019 85.6976 62.0499 85.8835C61.5979 86.0695 61.1137 86.1645 60.6249 86.1631H39.3605C38.3759 86.1619 37.432 85.7703 36.7359 85.0742C36.0397 84.378 35.6481 83.4341 35.647 82.4496V79.621C35.6461 79.2116 35.7135 78.805 35.8464 78.4178L38.7451 69.9914Z" fill="#FF8139" fill-opacity="0.01"/>
</g>
<path d="M39.0981 69.9914C39.1727 69.7749 39.2931 69.577 39.451 69.4112C39.6089 69.2453 39.8007 69.1154 40.0133 69.0303C40.2259 68.9451 40.4543 68.9067 40.683 68.9177C40.9117 68.9286 41.1354 68.9887 41.3389 69.0938C44.1465 70.5525 47.2658 71.309 50.4297 71.2982C53.5935 71.2875 56.7077 70.51 59.5053 69.0323C59.7105 68.9241 59.9368 68.862 60.1685 68.8504C60.4002 68.8388 60.6316 68.8779 60.8466 68.965C61.0616 69.0521 61.255 69.1851 61.4133 69.3547C61.5716 69.5242 61.691 69.7263 61.7631 69.9468L64.5216 78.4454C64.6437 78.8187 64.7061 79.2091 64.7062 79.6019V82.4496C64.7057 82.9383 64.6088 83.4222 64.421 83.8735C64.2333 84.3247 63.9584 84.7345 63.6121 85.0794C63.2658 85.4243 62.8549 85.6976 62.4029 85.8835C61.9509 86.0695 61.4667 86.1645 60.9779 86.1631H39.7135C38.7289 86.1619 37.785 85.7703 37.0889 85.0742C36.3927 84.378 36.0011 83.4341 36 82.4496V79.621C35.9991 79.2116 36.0665 78.805 36.1994 78.4178L39.0981 69.9914Z" fill="#FF8139"/>
<g filter="url(#filter1_d)">
<path d="M50.0002 66.1875C64.8921 66.1875 76.9643 54.1152 76.9643 39.2234C76.9643 24.3315 64.8921 12.2593 50.0002 12.2593C35.1084 12.2593 23.0361 24.3315 23.0361 39.2234C23.0361 54.1152 35.1084 66.1875 50.0002 66.1875Z" fill="#FFC226" fill-opacity="0.01"/>
</g>
<path d="M49.5793 60.4388C60.2929 60.4388 68.9779 51.7538 68.9779 41.0402C68.9779 30.3267 60.2929 21.6416 49.5793 21.6416C38.8658 21.6416 30.1807 30.3267 30.1807 41.0402C30.1807 51.7538 38.8658 60.4388 49.5793 60.4388Z" fill="white"/>
<path d="M50.0002 65.9282C64.8921 65.9282 76.9643 53.856 76.9643 38.9641C76.9643 24.0722 64.8921 12 50.0002 12C35.1084 12 23.0361 24.0722 23.0361 38.9641C23.0361 53.856 35.1084 65.9282 50.0002 65.9282Z" fill="#FFC226"/>
<path d="M64.3532 30.7251L47.3278 47.7505C47.111 47.9675 46.8535 48.1396 46.5702 48.257C46.2868 48.3744 45.9831 48.4349 45.6763 48.4349C45.3696 48.4349 45.0659 48.3744 44.7825 48.257C44.4991 48.1396 44.2417 47.9675 44.0248 47.7505L38.6797 42.3991" stroke="white" stroke-width="4.66961" stroke-linecap="round" stroke-linejoin="round"/>
</g>
<defs>
<filter id="filter0_d" x="28.647" y="63.8484" width="42.7062" height="31.3147" filterUnits="userSpaceOnUse" color-interpolation-filters="sRGB">
<feFlood flood-opacity="0" result="BackgroundImageFix"/>
<feColorMatrix in="SourceAlpha" type="matrix" values="0 0 0 0 0 0 0 0 0 0 0 0 0 0 0 0 0 0 127 0"/>
<feOffset dy="2"/>
<feGaussianBlur stdDeviation="3.5"/>
<feColorMatrix type="matrix" values="0 0 0 0 1 0 0 0 0 0.504861 0 0 0 0 0.225 0 0 0 0.24 0"/>
<feBlend mode="normal" in2="BackgroundImageFix" result="effect1_dropShadow"/>
<feBlend mode="normal" in="SourceGraphic" in2="effect1_dropShadow" result="shape"/>
</filter>
<filter id="filter1_d" x="0.0155334" y="-5.00388" width="99.9694" height="99.9694" filterUnits="userSpaceOnUse" color-interpolation-filters="sRGB">
<feFlood flood-opacity="0" result="BackgroundImageFix"/>
<feColorMatrix in="SourceAlpha" type="matrix" values="0 0 0 0 0 0 0 0 0 0 0 0 0 0 0 0 0 0 127 0"/>
<feOffset dy="5.75744"/>
<feGaussianBlur stdDeviation="11.5103"/>
<feColorMatrix type="matrix" values="0 0 0 0 1 0 0 0 0 0.760784 0 0 0 0 0.14902 0 0 0 0.5 0"/>
<feBlend mode="normal" in2="BackgroundImageFix" result="effect1_dropShadow"/>
<feBlend mode="normal" in="SourceGraphic" in2="effect1_dropShadow" result="shape"/>
</filter>
<clipPath id="clip0">
<rect width="100" height="100" fill="white"/>
</clipPath>
</defs>
</svg>
