<svg width="100" height="100" viewBox="0 0 100 100" fill="none" xmlns="http://www.w3.org/2000/svg">
<g clip-path="url(#clip0)">
<path d="M100 0H0V100H100V0Z" fill="white"/>
<path d="M100 0H0V100H100V0Z" fill="#EAE7FF"/>
<g filter="url(#filter0_d)">
<path fill-rule="evenodd" clip-rule="evenodd" d="M56.9627 36.6639C56.9627 44.984 50.1543 51.6516 41.6584 51.6516C33.1656 51.6516 26.3541 44.984 26.3541 36.6639C26.3541 28.3438 33.1656 21.6763 41.6584 21.6763C50.1543 21.6763 56.9627 28.3438 56.9627 36.6639ZM18.5293 68.6222C18.5293 60.9203 29.1838 58.9933 41.6582 58.9933C54.2003 58.9933 64.7871 60.9867 64.7871 68.6946C64.7871 76.3965 54.1326 78.3235 41.6582 78.3235C29.1161 78.3235 18.5293 76.3302 18.5293 68.6222Z" fill="#6A35FF" fill-opacity="0.01"/>
<path d="M63.1341 36.9355C63.1341 41.1725 61.8346 45.126 59.5559 48.41C59.3188 48.7477 59.5282 49.2031 59.9408 49.2755C60.5135 49.369 61.1017 49.4263 61.7022 49.4383C67.6761 49.5921 73.0372 45.8256 74.5184 40.1532C76.7139 31.7366 70.272 24.1794 62.0655 24.1794C61.1756 24.1794 60.3226 24.2699 59.4912 24.4358C59.3773 24.4599 59.2541 24.5142 59.1925 24.6107C59.1124 24.7343 59.171 24.8941 59.251 24.9997C61.7176 28.3862 63.1341 32.5086 63.1341 36.9355Z" fill="#4A1EC6" fill-opacity="0.01"/>
<path d="M80.7752 59.9737C79.682 57.6909 77.043 56.1258 73.0276 55.3568C71.1338 54.9045 66.0036 54.2621 61.2337 54.3526C61.1629 54.3616 61.1229 54.4099 61.1167 54.4401C61.1075 54.4883 61.129 54.5607 61.2214 54.6119C63.4262 55.6795 71.9467 60.3235 70.8751 70.1183C70.8289 70.5465 71.1769 70.9084 71.6111 70.8481C73.7081 70.5556 79.1031 69.4187 80.7752 65.8844C81.7021 64.0147 81.7021 61.8434 80.7752 59.9737Z" fill="#4A1EC6" fill-opacity="0.01"/>
</g>
<path fill-rule="evenodd" clip-rule="evenodd" d="M56.9627 36.6639C56.9627 44.984 50.1543 51.6516 41.6584 51.6516C33.1656 51.6516 26.3541 44.984 26.3541 36.6639C26.3541 28.3438 33.1656 21.6763 41.6584 21.6763C50.1543 21.6763 56.9627 28.3438 56.9627 36.6639ZM18.5293 68.6222C18.5293 60.9203 29.1838 58.9933 41.6582 58.9933C54.2003 58.9933 64.7871 60.9867 64.7871 68.6946C64.7871 76.3965 54.1326 78.3235 41.6582 78.3235C29.1161 78.3235 18.5293 76.3302 18.5293 68.6222Z" fill="#6A35FF"/>
<path d="M63.1341 36.9355C63.1341 41.1725 61.8346 45.126 59.5559 48.41C59.3188 48.7477 59.5282 49.2031 59.9408 49.2755C60.5135 49.369 61.1017 49.4263 61.7022 49.4383C67.6761 49.5921 73.0372 45.8256 74.5184 40.1532C76.7139 31.7366 70.272 24.1794 62.0655 24.1794C61.1756 24.1794 60.3226 24.2699 59.4912 24.4358C59.3773 24.4599 59.2541 24.5142 59.1925 24.6107C59.1124 24.7343 59.171 24.8941 59.251 24.9997C61.7176 28.3862 63.1341 32.5086 63.1341 36.9355Z" fill="#4A1EC6"/>
<path d="M80.7752 59.9737C79.682 57.6909 77.043 56.1258 73.0276 55.3568C71.1338 54.9045 66.0036 54.2621 61.2337 54.3526C61.1629 54.3616 61.1229 54.4099 61.1167 54.4401C61.1075 54.4883 61.129 54.5607 61.2214 54.6119C63.4262 55.6795 71.9467 60.3235 70.8751 70.1183C70.8289 70.5465 71.1769 70.9084 71.6111 70.8481C73.7081 70.5556 79.1031 69.4187 80.7752 65.8844C81.7021 64.0147 81.7021 61.8434 80.7752 59.9737Z" fill="#4A1EC6"/>
</g>
<defs>
<filter id="filter0_d" x="-3.9399" y="4.82207" width="107.879" height="101.586" filterUnits="userSpaceOnUse" color-interpolation-filters="sRGB">
<feFlood flood-opacity="0" result="BackgroundImageFix"/>
<feColorMatrix in="SourceAlpha" type="matrix" values="0 0 0 0 0 0 0 0 0 0 0 0 0 0 0 0 0 0 127 0"/>
<feOffset dy="5.61497"/>
<feGaussianBlur stdDeviation="11.2346"/>
<feColorMatrix type="matrix" values="0 0 0 0 0.414166 0 0 0 0 0.208333 0 0 0 0 1 0 0 0 0.5 0"/>
<feBlend mode="normal" in2="BackgroundImageFix" result="effect1_dropShadow"/>
<feBlend mode="normal" in="SourceGraphic" in2="effect1_dropShadow" result="shape"/>
</filter>
<clipPath id="clip0">
<rect width="100" height="100" fill="white"/>
</clipPath>
</defs>
</svg>
